<?xml version="1.0" encoding="UTF-8" standalone="no"?>
<!DOCTYPE svg PUBLIC "-//W3C//DTD SVG 1.0//EN" "http://www.w3.org/TR/2001/REC-SVG-20010904/DTD/svg10.dtd">
<!-- Generated by Microsoft Visio 11.0, SVG Export, v1.0 Characteristics.svg Page-1 -->
<svg xmlns="http://www.w3.org/2000/svg" xmlns:v="http://schemas.microsoft.com/visio/2003/SVGExtensions/" width="8.26772in"
		height="11.6929in" viewBox="0 0 595.276 841.89" xml:space="preserve" color-interpolation-filters="sRGB" class="st15">
	<v:documentProperties v:langID="1033" v:viewMarkup="false"/>

	<style type="text/css">
	<![CDATA[
		.st1 {fill:#ffffff}
		.st2 {stroke:#800080;stroke-dasharray:2.16,2.16;stroke-linecap:round;stroke-linejoin:round;stroke-width:0.72}
		.st3 {fill:#800080;font-family:Arial;font-size:1.5em}
		.st4 {fill:#999999;stroke:#000000;stroke-linecap:round;stroke-linejoin:round;stroke-width:0.24}
		.st5 {fill:#dde2cd;stroke:#000000;stroke-linecap:round;stroke-linejoin:round;stroke-width:0.24}
		.st6 {fill:#000000;font-family:Arial;font-size:0.666664em}
		.st7 {font-size:1em}
		.st8 {fill:#cccccc;stroke:#000000;stroke-linecap:round;stroke-linejoin:round;stroke-width:0.24}
		.st9 {marker-end:url(#mrkr13-96);stroke:#000000;stroke-linecap:round;stroke-linejoin:round;stroke-width:1.2}
		.st10 {fill:#000000;fill-opacity:1;stroke:#000000;stroke-opacity:1;stroke-width:0.32258064516129}
		.st11 {fill:#ffffff;stroke:none;stroke-linecap:butt;stroke-width:7.2}
		.st12 {marker-end:url(#mrkr13-96);stroke:#000000;stroke-dasharray:8.4,6;stroke-linecap:round;stroke-linejoin:round;stroke-width:1.2}
		.st13 {marker-end:url(#mrkr13-194);stroke:#000000;stroke-dasharray:8.4,6;stroke-linecap:round;stroke-linejoin:round;stroke-width:1.2}
		.st14 {marker-end:url(#mrkr13-194);stroke:#000000;stroke-linecap:round;stroke-linejoin:round;stroke-width:1.2}
		.st15 {fill:none;fill-rule:evenodd;font-size:12;overflow:visible;stroke-linecap:square;stroke-miterlimit:3}
	]]>
	</style>

	<defs id="Markers">
		<g id="lend13">
			<path d="M 3 1 L -0 0 L 3 -1 L 3 1 " style="stroke:none"/>
		</g>
		<marker id="mrkr13-96" class="st10" v:arrowType="13" v:arrowSize="2" v:setback="9" refX="-9" orient="auto"
				markerUnits="strokeWidth">
			<use xlink:href="#lend13" transform="scale(-3.1,-3.1) "/>
		</marker>
		<marker id="mrkr13-194" class="st10" v:arrowType="13" v:arrowSize="2" v:setback="9.3" refX="-9.3" orient="auto"
				markerUnits="strokeWidth">
			<use xlink:href="#lend13" transform="scale(-3.1,-3.1) "/>
		</marker>
	</defs>
	<g v:mID="0" v:index="1" v:groupContext="foregroundPage">
		<v:userDefs>
			<v:ud v:nameU="VPX" v:val="VT0(4.1338582677165):1"/>
			<v:ud v:nameU="VPY" v:val="VT0(6.2992125984252):1"/>
			<v:ud v:nameU="SchemeName" v:val="VT4(Default)"/>
		</v:userDefs>
		<title>Page-1</title>
		<v:pageProperties v:drawingScale="0.0393701" v:pageScale="0.0393701" v:drawingUnits="24" v:shadowOffsetX="8.50394"
				v:shadowOffsetY="-8.50394"/>
		<v:layer v:name="Vanishing Point" v:index="0"/>
		<v:layer v:name="3D Depth" v:index="1"/>
		<v:layer v:name="Connector" v:index="2"/>
		<g id="shape1-1" v:mID="1" v:groupContext="shape" v:layerMember="0" transform="translate(297.638,-453.543)">
			<title>Vanishing point</title>
			<desc>V.P.</desc>
			<v:userDefs>
				<v:ud v:nameU="Scale" v:val="VT0(1):26"/>
				<v:ud v:nameU="AntiScale" v:val="VT0(1):26"/>
				<v:ud v:nameU="visVersion" v:val="VT0(11):26"/>
			</v:userDefs>
			<v:textBlock v:margins="rect(0,0,0,0)" v:tabSpace="42.5197"/>
			<v:textRect cx="35.4331" cy="813.543" width="35.44" height="17.0079"/>
			<path d="M-17.01 824.88 L-17.01 858.9 L17.01 858.9 L17.01 824.88 L-17.01 824.88 Z" class="st1"/>
			<path d="M0 1366.3 L0 382.68" class="st2"/>
			<path d="M-368.5 841.89 L368.5 841.89" class="st2"/>
			<path d="M-17.01 824.88 L-17.01 858.9 L17.01 858.9 L17.01 824.88 L-17.01 824.88" class="st2"/>
			<text x="18.43" y="818.94" class="st3" v:langID="1033"><v:paragraph v:horizAlign="1"/><v:tabList/>V.P.</text>		</g>
		<g id="group2-7" transform="translate(56.6929,-765.354)" v:mID="2" v:groupContext="group">
			<v:custProps>
				<v:cp v:nameU="Depth" v:lbl="Depth" v:type="1" v:format=" 10%; 20%; 30%; 40%; 50%; 60%; 70%; 80%; 90%;100%"
						v:langID="1033" v:val="VT4( 10%)"/>
			</v:custProps>
			<v:userDefs>
				<v:ud v:nameU="ShadowColor" v:val="VT5(#999999)"/>
				<v:ud v:nameU="ShadowPercentage" v:val="VT0(0.6):26"/>
				<v:ud v:nameU="HighlightColor" v:val="VT5(#cccccc)"/>
				<v:ud v:nameU="HighlightPercentage" v:val="VT0(0.8):26"/>
				<v:ud v:nameU="visVersion" v:val="VT0(11):26"/>
			</v:userDefs>
			<title>Shallow block</title>
			<desc>Race &#38; Gender</desc>
			<g id="shape3-8" v:mID="3" v:groupContext="shape" v:layerMember="1">
				<title>Sheet.3</title>
			</g>
			<g id="shape4-10" v:mID="4" v:groupContext="shape" v:layerMember="1">
				<title>Sheet.4</title>
				<path d="M56.69 813.54 L56.69 841.89 L75.12 873.07 L75.12 847.56 L56.69 813.54 Z M0 841.89 L56.69 841.89 L75.12 873.07
							 L24.09 873.07 L0 841.89 Z" class="st4"/>
			</g>
			<g id="shape5-12" v:mID="5" v:groupContext="shape">
				<title>Sheet.5</title>
				<v:textBlock v:margins="rect(4,4,4,4)" v:tabSpace="42.5197"/>
				<rect x="0" y="813.543" width="56.6929" height="28.3465" class="st5"/>
			</g>
			<g id="shape2-14" v:mID="2" v:groupContext="groupContent">
				<v:textBlock v:margins="rect(4,4,4,4)" v:tabSpace="42.5197"/>
				<v:textRect cx="28.3465" cy="827.717" width="56.7" height="28.3465"/>
				<text x="15.23" y="825.32" class="st6" v:langID="1053"><v:paragraph v:horizAlign="1"/><v:tabList/>Race &#38; <tspan
							x="15.01" dy="1.2em" class="st7">Gender</tspan></text>			</g>
		</g>
		<g id="group6-17" transform="translate(141.732,-765.354)" v:mID="6" v:groupContext="group">
			<v:custProps>
				<v:cp v:nameU="Depth" v:lbl="Depth" v:type="1" v:format=" 10%; 20%; 30%; 40%; 50%; 60%; 70%; 80%; 90%;100%"
						v:langID="1033" v:val="VT4( 10%)"/>
			</v:custProps>
			<v:userDefs>
				<v:ud v:nameU="ShadowColor" v:val="VT5(#999999)"/>
				<v:ud v:nameU="ShadowPercentage" v:val="VT0(0.6):26"/>
				<v:ud v:nameU="HighlightColor" v:val="VT5(#cccccc)"/>
				<v:ud v:nameU="HighlightPercentage" v:val="VT0(0.8):26"/>
				<v:ud v:nameU="visVersion" v:val="VT0(11):26"/>
			</v:userDefs>
			<title>Shallow block.6</title>
			<desc>Class(es)</desc>
			<g id="shape7-18" v:mID="7" v:groupContext="shape" v:layerMember="1">
				<title>Sheet.7</title>
			</g>
			<g id="shape8-20" v:mID="8" v:groupContext="shape" v:layerMember="1">
				<title>Sheet.8</title>
				<path d="M56.69 813.54 L56.69 841.89 L66.61 873.07 L66.61 847.56 L56.69 813.54 Z M0 841.89 L56.69 841.89 L66.61 873.07
							 L15.59 873.07 L0 841.89 Z" class="st4"/>
			</g>
			<g id="shape9-22" v:mID="9" v:groupContext="shape">
				<title>Sheet.9</title>
				<v:textBlock v:margins="rect(4,4,4,4)" v:tabSpace="42.5197"/>
				<rect x="0" y="813.543" width="56.6929" height="28.3465" class="st5"/>
			</g>
			<g id="shape6-24" v:mID="6" v:groupContext="groupContent">
				<v:textBlock v:margins="rect(4,4,4,4)" v:tabSpace="42.5197"/>
				<v:textRect cx="28.3465" cy="827.717" width="56.7" height="28.3465"/>
				<text x="11.46" y="830.12" class="st6" v:langID="1053"><v:paragraph v:horizAlign="1"/><v:tabList/>Class(es)</text>			</g>
		</g>
		<g id="group10-26" transform="translate(226.772,-765.354)" v:mID="10" v:groupContext="group">
			<v:custProps>
				<v:cp v:nameU="Depth" v:lbl="Depth" v:type="1" v:format=" 10%; 20%; 30%; 40%; 50%; 60%; 70%; 80%; 90%;100%"
						v:langID="1033" v:val="VT4( 10%)"/>
			</v:custProps>
			<v:userDefs>
				<v:ud v:nameU="ShadowColor" v:val="VT5(#999999)"/>
				<v:ud v:nameU="ShadowPercentage" v:val="VT0(0.6):26"/>
				<v:ud v:nameU="HighlightColor" v:val="VT5(#cccccc)"/>
				<v:ud v:nameU="HighlightPercentage" v:val="VT0(0.8):26"/>
				<v:ud v:nameU="visVersion" v:val="VT0(11):26"/>
			</v:userDefs>
			<title>Shallow block.10</title>
			<desc>Base Ability Scores</desc>
			<g id="shape11-27" v:mID="11" v:groupContext="shape" v:layerMember="1">
				<title>Sheet.11</title>
			</g>
			<g id="shape12-29" v:mID="12" v:groupContext="shape" v:layerMember="1">
				<title>Sheet.12</title>
				<path d="M56.69 813.54 L56.69 841.89 L58.11 873.07 L58.11 847.56 L56.69 813.54 Z M0 841.89 L56.69 841.89 L58.11 873.07
							 L7.09 873.07 L0 841.89 Z" class="st4"/>
			</g>
			<g id="shape13-31" v:mID="13" v:groupContext="shape">
				<title>Sheet.13</title>
				<v:textBlock v:margins="rect(4,4,4,4)" v:tabSpace="42.5197"/>
				<rect x="0" y="813.543" width="56.6929" height="28.3465" class="st5"/>
			</g>
			<g id="shape10-33" v:mID="10" v:groupContext="groupContent">
				<v:textBlock v:margins="rect(4,4,4,4)" v:tabSpace="42.5197"/>
				<v:textRect cx="28.3465" cy="827.717" width="56.7" height="28.3465"/>
				<text x="7.45" y="825.32" class="st6" v:langID="1053"><v:paragraph v:horizAlign="1"/><v:tabList/>Base Ability <tspan
							x="15.9" dy="1.2em" class="st7">Scores</tspan></text>			</g>
		</g>
		<g id="group14-36" transform="translate(481.89,-765.354)" v:mID="14" v:groupContext="group">
			<v:custProps>
				<v:cp v:nameU="Depth" v:lbl="Depth" v:type="1" v:format=" 10%; 20%; 30%; 40%; 50%; 60%; 70%; 80%; 90%;100%"
						v:langID="1033" v:val="VT4( 10%)"/>
			</v:custProps>
			<v:userDefs>
				<v:ud v:nameU="ShadowColor" v:val="VT5(#999999)"/>
				<v:ud v:nameU="ShadowPercentage" v:val="VT0(0.6):26"/>
				<v:ud v:nameU="HighlightColor" v:val="VT5(#cccccc)"/>
				<v:ud v:nameU="HighlightPercentage" v:val="VT0(0.8):26"/>
				<v:ud v:nameU="visVersion" v:val="VT0(11):26"/>
			</v:userDefs>
			<title>Shallow block.14</title>
			<desc>Name</desc>
			<g id="shape15-37" v:mID="15" v:groupContext="shape" v:layerMember="1">
				<title>Sheet.15</title>
				<path d="M0 813.54 L0 841.89 L-18.43 873.07 L-18.43 847.56 L0 813.54 Z" class="st8"/>
			</g>
			<g id="shape16-39" v:mID="16" v:groupContext="shape" v:layerMember="1">
				<title>Sheet.16</title>
				<path d="M0 841.89 L56.69 841.89 L32.6 873.07 L-18.43 873.07 L0 841.89 Z" class="st4"/>
			</g>
			<g id="shape17-41" v:mID="17" v:groupContext="shape">
				<title>Sheet.17</title>
				<v:textBlock v:margins="rect(4,4,4,4)" v:tabSpace="42.5197"/>
				<rect x="0" y="813.543" width="56.6929" height="28.3465" class="st5"/>
			</g>
			<g id="shape14-43" v:mID="14" v:groupContext="groupContent">
				<v:textBlock v:margins="rect(4,4,4,4)" v:tabSpace="42.5197"/>
				<v:textRect cx="28.3465" cy="827.717" width="56.7" height="28.3465"/>
				<text x="17.68" y="830.12" class="st6" v:langID="1053"><v:paragraph v:horizAlign="1"/><v:tabList/>Name</text>			</g>
		</g>
		<g id="group18-45" transform="translate(481.89,-481.89)" v:mID="18" v:groupContext="group">
			<v:custProps>
				<v:cp v:nameU="Depth" v:lbl="Depth" v:type="1" v:format=" 10%; 20%; 30%; 40%; 50%; 60%; 70%; 80%; 90%;100%"
						v:langID="1033" v:val="VT4( 10%)"/>
			</v:custProps>
			<v:userDefs>
				<v:ud v:nameU="ShadowColor" v:val="VT5(#999999)"/>
				<v:ud v:nameU="ShadowPercentage" v:val="VT0(0.6):26"/>
				<v:ud v:nameU="HighlightColor" v:val="VT5(#cccccc)"/>
				<v:ud v:nameU="HighlightPercentage" v:val="VT0(0.8):26"/>
				<v:ud v:nameU="visVersion" v:val="VT0(11):26"/>
			</v:userDefs>
			<title>Shallow block.18</title>
			<desc>Equipment</desc>
			<g id="shape19-46" v:mID="19" v:groupContext="shape" v:layerMember="1">
				<title>Sheet.19</title>
				<path d="M0 813.54 L0 841.89 L-18.43 844.72 L-18.43 819.21 L0 813.54 Z" class="st8"/>
			</g>
			<g id="shape20-48" v:mID="20" v:groupContext="shape" v:layerMember="1">
				<title>Sheet.20</title>
				<path d="M0 841.89 L56.69 841.89 L32.6 844.72 L-18.43 844.72 L0 841.89 Z" class="st4"/>
			</g>
			<g id="shape21-50" v:mID="21" v:groupContext="shape">
				<title>Sheet.21</title>
				<v:textBlock v:margins="rect(4,4,4,4)" v:tabSpace="42.5197"/>
				<rect x="0" y="813.543" width="56.6929" height="28.3465" class="st5"/>
			</g>
			<g id="shape18-52" v:mID="18" v:groupContext="groupContent">
				<v:textBlock v:margins="rect(4,4,4,4)" v:tabSpace="42.5197"/>
				<v:textRect cx="28.3465" cy="827.717" width="56.7" height="28.3465"/>
				<text x="9.23" y="830.12" class="st6" v:langID="1053"><v:paragraph v:horizAlign="1"/><v:tabList/>Equipment</text>			</g>
		</g>
		<g id="group22-54" transform="translate(396.85,-765.354)" v:mID="22" v:groupContext="group">
			<v:custProps>
				<v:cp v:nameU="Depth" v:lbl="Depth" v:type="1" v:format=" 10%; 20%; 30%; 40%; 50%; 60%; 70%; 80%; 90%;100%"
						v:langID="1033" v:val="VT4( 10%)"/>
			</v:custProps>
			<v:userDefs>
				<v:ud v:nameU="ShadowColor" v:val="VT5(#999999)"/>
				<v:ud v:nameU="ShadowPercentage" v:val="VT0(0.6):26"/>
				<v:ud v:nameU="HighlightColor" v:val="VT5(#cccccc)"/>
				<v:ud v:nameU="HighlightPercentage" v:val="VT0(0.8):26"/>
				<v:ud v:nameU="visVersion" v:val="VT0(11):26"/>
			</v:userDefs>
			<title>Shallow block.22</title>
			<desc>Age</desc>
			<g id="shape23-55" v:mID="23" v:groupContext="shape" v:layerMember="1">
				<title>Sheet.23</title>
				<path d="M0 813.54 L0 841.89 L-9.92 873.07 L-9.92 847.56 L0 813.54 Z" class="st8"/>
			</g>
			<g id="shape24-57" v:mID="24" v:groupContext="shape" v:layerMember="1">
				<title>Sheet.24</title>
				<path d="M0 841.89 L56.69 841.89 L41.1 873.07 L-9.92 873.07 L0 841.89 Z" class="st4"/>
			</g>
			<g id="shape25-59" v:mID="25" v:groupContext="shape">
				<title>Sheet.25</title>
				<v:textBlock v:margins="rect(4,4,4,4)" v:tabSpace="42.5197"/>
				<rect x="0" y="813.543" width="56.6929" height="28.3465" class="st5"/>
			</g>
			<g id="shape22-61" v:mID="22" v:groupContext="groupContent">
				<v:textBlock v:margins="rect(4,4,4,4)" v:tabSpace="42.5197"/>
				<v:textRect cx="28.3465" cy="827.717" width="56.7" height="28.3465"/>
				<text x="21.23" y="830.12" class="st6" v:langID="1053"><v:paragraph v:horizAlign="1"/><v:tabList/>Age</text>			</g>
		</g>
		<g id="group26-63" transform="translate(481.89,-340.157)" v:mID="26" v:groupContext="group">
			<v:custProps>
				<v:cp v:nameU="Depth" v:lbl="Depth" v:type="1" v:format=" 10%; 20%; 30%; 40%; 50%; 60%; 70%; 80%; 90%;100%"
						v:langID="1033" v:val="VT4( 10%)"/>
			</v:custProps>
			<v:userDefs>
				<v:ud v:nameU="ShadowColor" v:val="VT5(#999999)"/>
				<v:ud v:nameU="ShadowPercentage" v:val="VT0(0.6):26"/>
				<v:ud v:nameU="HighlightColor" v:val="VT5(#cccccc)"/>
				<v:ud v:nameU="HighlightPercentage" v:val="VT0(0.8):26"/>
				<v:ud v:nameU="visVersion" v:val="VT0(11):26"/>
			</v:userDefs>
			<title>Shallow block.26</title>
			<desc>Environment</desc>
			<g id="shape27-64" v:mID="27" v:groupContext="shape" v:layerMember="1">
				<title>Sheet.27</title>
				<path d="M0 813.54 L0 841.89 L-18.43 830.55 L-18.43 805.04 L0 813.54 Z M0 813.54 L56.69 813.54 L32.6 805.04 L-18.43
							 805.04 L0 813.54 Z" class="st8"/>
			</g>
			<g id="shape28-66" v:mID="28" v:groupContext="shape" v:layerMember="1">
				<title>Sheet.28</title>
			</g>
			<g id="shape29-68" v:mID="29" v:groupContext="shape">
				<title>Sheet.29</title>
				<v:textBlock v:margins="rect(4,4,4,4)" v:tabSpace="42.5197"/>
				<rect x="0" y="813.543" width="56.6929" height="28.3465" class="st5"/>
			</g>
			<g id="shape26-70" v:mID="26" v:groupContext="groupContent">
				<v:textBlock v:margins="rect(4,4,4,4)" v:tabSpace="42.5197"/>
				<v:textRect cx="28.3465" cy="827.717" width="56.7" height="28.3465"/>
				<text x="5.89" y="830.12" class="st6" v:langID="1053"><v:paragraph v:horizAlign="1"/><v:tabList/>Environment</text>			</g>
		</g>
		<g id="group30-72" transform="translate(311.811,-765.354)" v:mID="30" v:groupContext="group">
			<v:custProps>
				<v:cp v:nameU="Depth" v:lbl="Depth" v:type="1" v:format=" 10%; 20%; 30%; 40%; 50%; 60%; 70%; 80%; 90%;100%"
						v:langID="1033" v:val="VT4( 10%)"/>
			</v:custProps>
			<v:userDefs>
				<v:ud v:nameU="ShadowColor" v:val="VT5(#999999)"/>
				<v:ud v:nameU="ShadowPercentage" v:val="VT0(0.6):26"/>
				<v:ud v:nameU="HighlightColor" v:val="VT5(#cccccc)"/>
				<v:ud v:nameU="HighlightPercentage" v:val="VT0(0.8):26"/>
				<v:ud v:nameU="visVersion" v:val="VT0(11):26"/>
			</v:userDefs>
			<title>Shallow block.30</title>
			<desc>Experience Points</desc>
			<g id="shape31-73" v:mID="31" v:groupContext="shape" v:layerMember="1">
				<title>Sheet.31</title>
				<path d="M0 813.54 L0 841.89 L-1.42 873.07 L-1.42 847.56 L0 813.54 Z" class="st8"/>
			</g>
			<g id="shape32-75" v:mID="32" v:groupContext="shape" v:layerMember="1">
				<title>Sheet.32</title>
				<path d="M0 841.89 L56.69 841.89 L49.61 873.07 L-1.42 873.07 L0 841.89 Z" class="st4"/>
			</g>
			<g id="shape33-77" v:mID="33" v:groupContext="shape">
				<title>Sheet.33</title>
				<v:textBlock v:margins="rect(4,4,4,4)" v:tabSpace="42.5197"/>
				<rect x="0" y="813.543" width="56.6929" height="28.3465" class="st5"/>
			</g>
			<g id="shape30-79" v:mID="30" v:groupContext="groupContent">
				<v:textBlock v:margins="rect(4,4,4,4)" v:tabSpace="42.5197"/>
				<v:textRect cx="28.3465" cy="827.717" width="56.7" height="28.3465"/>
				<text x="8.34" y="825.32" class="st6" v:langID="1053"><v:paragraph v:horizAlign="1"/><v:tabList/>Experience <tspan
							x="17.23" dy="1.2em" class="st7">Points</tspan></text>			</g>
		</g>
		<g id="group34-82" transform="translate(269.291,-623.622)" v:mID="34" v:groupContext="group">
			<v:custProps>
				<v:cp v:nameU="Depth" v:lbl="Depth" v:type="1" v:format=" 10%; 20%; 30%; 40%; 50%; 60%; 70%; 80%; 90%;100%"
						v:langID="1033" v:val="VT4( 10%)"/>
			</v:custProps>
			<v:userDefs>
				<v:ud v:nameU="ShadowColor" v:val="VT5(#999999)"/>
				<v:ud v:nameU="ShadowPercentage" v:val="VT0(0.6):26"/>
				<v:ud v:nameU="HighlightColor" v:val="VT5(#cccccc)"/>
				<v:ud v:nameU="HighlightPercentage" v:val="VT0(0.8):26"/>
				<v:ud v:nameU="visVersion" v:val="VT0(11):26"/>
			</v:userDefs>
			<title>Shallow block.34</title>
			<desc>Ability Scores</desc>
			<g id="shape35-83" v:mID="35" v:groupContext="shape" v:layerMember="1">
				<title>Sheet.35</title>
			</g>
			<g id="shape36-85" v:mID="36" v:groupContext="shape" v:layerMember="1">
				<title>Sheet.36</title>
				<path d="M0 841.89 L56.69 841.89 L53.86 858.9 L2.83 858.9 L0 841.89 Z" class="st4"/>
			</g>
			<g id="shape37-87" v:mID="37" v:groupContext="shape">
				<title>Sheet.37</title>
				<v:textBlock v:margins="rect(4,4,4,4)" v:tabSpace="42.5197"/>
				<rect x="0" y="813.543" width="56.6929" height="28.3465" class="st5"/>
			</g>
			<g id="shape34-89" v:mID="34" v:groupContext="groupContent">
				<v:textBlock v:margins="rect(4,4,4,4)" v:tabSpace="42.5197"/>
				<v:textRect cx="28.3465" cy="827.717" width="56.7" height="28.3465"/>
				<text x="4.12" y="830.12" class="st6" v:langID="1053"><v:paragraph v:horizAlign="1"/><v:tabList/>Ability Scores</text>			</g>
		</g>
		<g id="shape38-91" v:mID="38" v:groupContext="shape" v:layerMember="2" transform="translate(85.0394,-765.354)">
			<title>Dynamic connector</title>
			<desc>Racial Ability Adjustments</desc>
			<v:textBlock v:margins="rect(4,4,4,4)" v:tabSpace="42.5197"/>
			<v:textRect cx="138.815" cy="853.783" width="103.02" height="17.6036"/>
			<path d="M0 841.89 C-0 852.52 50.4 852.52 100.79 852.52 C154.59 852.52 208.4 852.52 212.36 944.12 L212.37 944.48"
					class="st9"/>
			<rect v:rectContext="textBkgnd" x="92.4173" y="848.984" width="92.0344" height="9.59985" class="st11"/>
			<text x="92.79" y="856.18" class="st6" v:langID="1053"><v:paragraph v:horizAlign="1"/><v:tabList/>Racial Ability Adjustments</text>		</g>
		<g id="shape39-99" v:mID="39" v:groupContext="shape" v:layerMember="2" transform="translate(255.118,-765.354)">
			<title>Dynamic connector.39</title>
			<path d="M0 841.89 C-0 852.12 39.38 852.5 42.34 944.12 L42.35 944.48" class="st9"/>
		</g>
		<g id="shape40-104" v:mID="40" v:groupContext="shape" v:layerMember="2" transform="translate(425.197,-765.354)">
			<title>Dynamic connector.40</title>
			<desc>Age Ability Adjustments</desc>
			<v:textBlock v:margins="rect(4,4,4,4)" v:tabSpace="42.5197"/>
			<v:textRect cx="-98.3356" cy="860.085" width="95.02" height="17.6036"/>
			<path d="M0 841.89 C-0 852.52 -27.98 852.52 -55.96 852.52 C-90.41 852.52 -124.87 852.52 -127.41 944.12 L-127.41 944.48"
					class="st9"/>
			<rect v:rectContext="textBkgnd" x="-140.736" y="855.285" width="84.038" height="9.59985" class="st11"/>
			<text x="-140.36" y="862.49" class="st6" v:langID="1053"><v:paragraph v:horizAlign="1"/><v:tabList/>Age Ability Adjustments</text>		</g>
		<g id="group41-111" transform="translate(184.252,-623.622)" v:mID="41" v:groupContext="group">
			<v:custProps>
				<v:cp v:nameU="Depth" v:lbl="Depth" v:type="1" v:format=" 10%; 20%; 30%; 40%; 50%; 60%; 70%; 80%; 90%;100%"
						v:langID="1033" v:val="VT4( 10%)"/>
			</v:custProps>
			<v:userDefs>
				<v:ud v:nameU="ShadowColor" v:val="VT5(#999999)"/>
				<v:ud v:nameU="ShadowPercentage" v:val="VT0(0.6):26"/>
				<v:ud v:nameU="HighlightColor" v:val="VT5(#cccccc)"/>
				<v:ud v:nameU="HighlightPercentage" v:val="VT0(0.8):26"/>
				<v:ud v:nameU="visVersion" v:val="VT0(11):26"/>
			</v:userDefs>
			<title>Shallow block.41</title>
			<desc>Size Category</desc>
			<g id="shape42-112" v:mID="42" v:groupContext="shape" v:layerMember="1">
				<title>Sheet.42</title>
			</g>
			<g id="shape43-114" v:mID="43" v:groupContext="shape" v:layerMember="1">
				<title>Sheet.43</title>
				<path d="M56.69 813.54 L56.69 841.89 L62.36 858.9 L62.36 833.39 L56.69 813.54 Z M0 841.89 L56.69 841.89 L62.36 858.9
							 L11.34 858.9 L0 841.89 Z" class="st4"/>
			</g>
			<g id="shape44-116" v:mID="44" v:groupContext="shape">
				<title>Sheet.44</title>
				<v:textBlock v:margins="rect(4,4,4,4)" v:tabSpace="42.5197"/>
				<rect x="0" y="813.543" width="56.6929" height="28.3465" class="st5"/>
			</g>
			<g id="shape41-118" v:mID="41" v:groupContext="groupContent">
				<v:textBlock v:margins="rect(4,4,4,4)" v:tabSpace="42.5197"/>
				<v:textRect cx="28.3465" cy="827.717" width="56.7" height="28.3465"/>
				<text x="20.57" y="825.32" class="st6" v:langID="1053"><v:paragraph v:horizAlign="1"/><v:tabList/>Size <tspan
							x="12.12" dy="1.2em" class="st7">Category</tspan></text>			</g>
		</g>
		<g id="shape45-121" v:mID="45" v:groupContext="shape" v:layerMember="2" transform="translate(85.0394,-765.354)">
			<title>Dynamic connector.45</title>
			<path d="M0 841.89 C0 852.52 27.98 852.52 55.96 852.52 C90.41 852.52 124.87 852.52 127.41 944.12 L127.41 944.48"
					class="st9"/>
		</g>
		<g id="shape46-126" v:mID="46" v:groupContext="shape" v:layerMember="2" transform="translate(425.197,-765.354)">
			<title>Dynamic connector.46</title>
			<path d="M0 841.89 C0 859.61 -50.79 859.61 -101.59 859.61 C-154.84 859.61 -208.1 859.61 -212.33 944.12 L-212.34 944.48"
					class="st12"/>
		</g>
		<g id="group47-131" transform="translate(354.331,-623.622)" v:mID="47" v:groupContext="group">
			<v:custProps>
				<v:cp v:nameU="Depth" v:lbl="Depth" v:type="1" v:format=" 10%; 20%; 30%; 40%; 50%; 60%; 70%; 80%; 90%;100%"
						v:langID="1033" v:val="VT4( 10%)"/>
			</v:custProps>
			<v:userDefs>
				<v:ud v:nameU="ShadowColor" v:val="VT5(#999999)"/>
				<v:ud v:nameU="ShadowPercentage" v:val="VT0(0.6):26"/>
				<v:ud v:nameU="HighlightColor" v:val="VT5(#cccccc)"/>
				<v:ud v:nameU="HighlightPercentage" v:val="VT0(0.8):26"/>
				<v:ud v:nameU="visVersion" v:val="VT0(11):26"/>
			</v:userDefs>
			<title>Shallow block.47</title>
			<desc>Total Level</desc>
			<g id="shape48-132" v:mID="48" v:groupContext="shape" v:layerMember="1">
				<title>Sheet.48</title>
				<path d="M0 813.54 L0 841.89 L-5.67 858.9 L-5.67 833.39 L0 813.54 Z" class="st8"/>
			</g>
			<g id="shape49-134" v:mID="49" v:groupContext="shape" v:layerMember="1">
				<title>Sheet.49</title>
				<path d="M0 841.89 L56.69 841.89 L45.35 858.9 L-5.67 858.9 L0 841.89 Z" class="st4"/>
			</g>
			<g id="shape50-136" v:mID="50" v:groupContext="shape">
				<title>Sheet.50</title>
				<v:textBlock v:margins="rect(4,4,4,4)" v:tabSpace="42.5197"/>
				<rect x="0" y="813.543" width="56.6929" height="28.3465" class="st5"/>
			</g>
			<g id="shape47-138" v:mID="47" v:groupContext="groupContent">
				<v:textBlock v:margins="rect(4,4,4,4)" v:tabSpace="42.5197"/>
				<v:textRect cx="28.3465" cy="827.717" width="56.7" height="28.3465"/>
				<text x="8.78" y="830.12" class="st6" v:langID="1053"><v:paragraph v:horizAlign="1"/><v:tabList/>Total Level</text>			</g>
		</g>
		<g id="shape51-140" v:mID="51" v:groupContext="shape" v:layerMember="2" transform="translate(340.157,-765.354)">
			<title>Dynamic connector.51</title>
			<path d="M0 841.89 C0 848.98 5.82 848.98 11.63 848.98 C26.51 848.98 41.4 848.98 42.46 944.12 L42.46 944.48" class="st9"/>
		</g>
		<g id="group52-145" transform="translate(99.2126,-623.622)" v:mID="52" v:groupContext="group">
			<v:custProps>
				<v:cp v:nameU="Depth" v:lbl="Depth" v:type="1" v:format=" 10%; 20%; 30%; 40%; 50%; 60%; 70%; 80%; 90%;100%"
						v:langID="1033" v:val="VT4( 10%)"/>
			</v:custProps>
			<v:userDefs>
				<v:ud v:nameU="ShadowColor" v:val="VT5(#999999)"/>
				<v:ud v:nameU="ShadowPercentage" v:val="VT0(0.6):26"/>
				<v:ud v:nameU="HighlightColor" v:val="VT5(#cccccc)"/>
				<v:ud v:nameU="HighlightPercentage" v:val="VT0(0.8):26"/>
				<v:ud v:nameU="visVersion" v:val="VT0(11):26"/>
			</v:userDefs>
			<title>Shallow block.52</title>
			<desc>Skill Levels</desc>
			<g id="shape53-146" v:mID="53" v:groupContext="shape" v:layerMember="1">
				<title>Sheet.53</title>
			</g>
			<g id="shape54-148" v:mID="54" v:groupContext="shape" v:layerMember="1">
				<title>Sheet.54</title>
				<path d="M56.69 813.54 L56.69 841.89 L70.87 858.9 L70.87 833.39 L56.69 813.54 Z M0 841.89 L56.69 841.89 L70.87 858.9
							 L19.84 858.9 L0 841.89 Z" class="st4"/>
			</g>
			<g id="shape55-150" v:mID="55" v:groupContext="shape">
				<title>Sheet.55</title>
				<v:textBlock v:margins="rect(4,4,4,4)" v:tabSpace="42.5197"/>
				<rect x="0" y="813.543" width="56.6929" height="28.3465" class="st5"/>
			</g>
			<g id="shape52-152" v:mID="52" v:groupContext="groupContent">
				<v:textBlock v:margins="rect(4,4,4,4)" v:tabSpace="42.5197"/>
				<v:textRect cx="28.3465" cy="827.717" width="56.7" height="28.3465"/>
				<text x="8.34" y="830.12" class="st6" v:langID="1053"><v:paragraph v:horizAlign="1"/><v:tabList/>Skill Levels</text>			</g>
		</g>
		<g id="shape56-154" v:mID="56" v:groupContext="shape" v:layerMember="2" transform="translate(85.0394,-765.354)">
			<title>Dynamic connector.56</title>
			<desc>Racial Skill Modifiers</desc>
			<v:textBlock v:margins="rect(4,4,4,4)" v:tabSpace="42.5197"/>
			<v:textRect cx="35.0413" cy="892.774" width="50.1" height="27.2035"/>
			<path d="M0 841.89 C-0 852.12 39.38 852.5 42.34 944.12 L42.35 944.48" class="st9"/>
			<rect v:rectContext="textBkgnd" x="15.1075" y="883.175" width="39.1209" height="19.1997" class="st11"/>
			<text x="15.48" y="890.37" class="st6" v:langID="1053"><v:paragraph v:horizAlign="1"/><v:tabList/>Racial Skill<v:newlineChar/><tspan
						x="18.82" dy="1.2em" class="st7">Modifiers</tspan></text>		</g>
		<g id="group57-162" transform="translate(354.331,-481.89)" v:mID="57" v:groupContext="group">
			<v:custProps>
				<v:cp v:nameU="Depth" v:lbl="Depth" v:type="1" v:format=" 10%; 20%; 30%; 40%; 50%; 60%; 70%; 80%; 90%;100%"
						v:langID="1033" v:val="VT4( 10%)"/>
			</v:custProps>
			<v:userDefs>
				<v:ud v:nameU="ShadowColor" v:val="VT5(#999999)"/>
				<v:ud v:nameU="ShadowPercentage" v:val="VT0(0.6):26"/>
				<v:ud v:nameU="HighlightColor" v:val="VT5(#cccccc)"/>
				<v:ud v:nameU="HighlightPercentage" v:val="VT0(0.8):26"/>
				<v:ud v:nameU="visVersion" v:val="VT0(11):26"/>
			</v:userDefs>
			<title>Shallow block.57</title>
			<desc>Health (HP, SP, PP)</desc>
			<g id="shape58-163" v:mID="58" v:groupContext="shape" v:layerMember="1">
				<title>Sheet.58</title>
				<path d="M0 813.54 L0 841.89 L-5.67 844.72 L-5.67 819.21 L0 813.54 Z" class="st8"/>
			</g>
			<g id="shape59-165" v:mID="59" v:groupContext="shape" v:layerMember="1">
				<title>Sheet.59</title>
				<path d="M0 841.89 L56.69 841.89 L45.35 844.72 L-5.67 844.72 L0 841.89 Z" class="st4"/>
			</g>
			<g id="shape60-167" v:mID="60" v:groupContext="shape">
				<title>Sheet.60</title>
				<v:textBlock v:margins="rect(4,4,4,4)" v:tabSpace="42.5197"/>
				<rect x="0" y="813.543" width="56.6929" height="28.3465" class="st5"/>
			</g>
			<g id="shape57-169" v:mID="57" v:groupContext="groupContent">
				<v:textBlock v:margins="rect(4,4,4,4)" v:tabSpace="42.5197"/>
				<v:textRect cx="28.3465" cy="827.717" width="56.7" height="28.3465"/>
				<text x="7.68" y="825.32" class="st6" v:langID="1053"><v:paragraph v:horizAlign="1"/><v:tabList/>Health (HP, <tspan
							x="14.12" dy="1.2em" class="st7">SP</tspan>, PP)</text>			</g>
		</g>
		<g id="group61-172" transform="translate(269.291,-481.89)" v:mID="61" v:groupContext="group">
			<v:custProps>
				<v:cp v:nameU="Depth" v:lbl="Depth" v:type="1" v:format=" 10%; 20%; 30%; 40%; 50%; 60%; 70%; 80%; 90%;100%"
						v:langID="1033" v:val="VT4( 10%)"/>
			</v:custProps>
			<v:userDefs>
				<v:ud v:nameU="ShadowColor" v:val="VT5(#999999)"/>
				<v:ud v:nameU="ShadowPercentage" v:val="VT0(0.6):26"/>
				<v:ud v:nameU="HighlightColor" v:val="VT5(#cccccc)"/>
				<v:ud v:nameU="HighlightPercentage" v:val="VT0(0.8):26"/>
				<v:ud v:nameU="visVersion" v:val="VT0(11):26"/>
			</v:userDefs>
			<title>Shallow block.61</title>
			<desc>Defenses (DeC, Saves)</desc>
			<g id="shape62-173" v:mID="62" v:groupContext="shape" v:layerMember="1">
				<title>Sheet.62</title>
			</g>
			<g id="shape63-175" v:mID="63" v:groupContext="shape" v:layerMember="1">
				<title>Sheet.63</title>
				<path d="M0 841.89 L56.69 841.89 L53.86 844.72 L2.83 844.72 L0 841.89 Z" class="st4"/>
			</g>
			<g id="shape64-177" v:mID="64" v:groupContext="shape">
				<title>Sheet.64</title>
				<v:textBlock v:margins="rect(4,4,4,4)" v:tabSpace="42.5197"/>
				<rect x="0" y="813.543" width="56.6929" height="28.3465" class="st5"/>
			</g>
			<g id="shape61-179" v:mID="61" v:groupContext="groupContent">
				<v:textBlock v:margins="rect(4,4,4,4)" v:tabSpace="42.5197"/>
				<v:textRect cx="28.3465" cy="827.717" width="56.7" height="28.3465"/>
				<text x="11.45" y="825.32" class="st6" v:langID="1053"><v:paragraph v:horizAlign="1"/><v:tabList/>Defenses <tspan
							x="4.34" dy="1.2em" class="st7">(</tspan>DeC, Saves)</text>			</g>
		</g>
		<g id="shape65-182" v:mID="65" v:groupContext="shape" v:layerMember="2" transform="translate(297.638,-623.622)">
			<title>Dynamic connector.65</title>
			<desc>Con/Wis</desc>
			<v:textBlock v:margins="rect(4,4,4,4)" v:tabSpace="42.5197"/>
			<v:textRect cx="12.2532" cy="925.524" width="41.21" height="17.6036"/>
			<path d="M0 841.89 C-0 944.65 25.89 944.65 51.77 944.65 C61.57 944.65 71.36 944.65 77.76 946.82 L78 947.09" class="st9"/>
			<rect v:rectContext="textBkgnd" x="-3.23605" y="920.724" width="30.2264" height="9.59985" class="st11"/>
			<text x="-2.86" y="927.92" class="st6" v:langID="1053"><v:paragraph v:horizAlign="1"/><v:tabList/>Con/Wis</text>		</g>
		<g id="shape66-189" v:mID="66" v:groupContext="shape" v:layerMember="2" transform="translate(389.764,-623.622)">
			<title>Dynamic connector.66</title>
			<path d="M-7.09 841.89 C-7.09 866.88 -7.09 913.91 -7.09 944.12" class="st13"/>
		</g>
		<g id="shape67-195" v:mID="67" v:groupContext="shape" v:layerMember="2" transform="translate(170.079,-765.354)">
			<title>Dynamic connector.67</title>
			<desc>Health/ Level</desc>
			<v:textBlock v:margins="rect(4,4,4,4)" v:tabSpace="42.5197"/>
			<v:textRect cx="30.2958" cy="1040.75" width="40" height="27.2035"/>
			<path d="M0 841.89 C0 1086.38 64.15 1086.38 128.3 1086.38 C158.67 1086.38 189.04 1086.38 203.64 1090.35 L203.93 1090.57"
					class="st12"/>
			<rect v:rectContext="textBkgnd" x="17.2472" y="1031.15" width="25.3474" height="19.1997" class="st11"/>
			<text x="17.62" y="1038.35" class="st6" v:langID="1053"><v:paragraph v:horizAlign="1"/><v:tabList/>Health/<v:newlineChar/><tspan
						x="20.73" dy="1.2em" class="st7">Level</tspan></text>		</g>
		<g id="shape68-203" v:mID="68" v:groupContext="shape" v:layerMember="2" transform="translate(85.0394,-765.354)">
			<title>Dynamic connector.68</title>
			<desc>Racial Save Modifiers</desc>
			<v:textBlock v:margins="rect(4,4,4,4)" v:tabSpace="42.5197"/>
			<v:textRect cx="32.279" cy="1038.81" width="53.67" height="27.2035"/>
			<path d="M0 841.89 C-0 1079.29 63.67 1079.29 127.35 1079.29 C160.42 1079.29 193.49 1079.29 206.65 1087.56 L206.84 1087.87"
					class="st9"/>
			<rect v:rectContext="textBkgnd" x="10.5538" y="1029.21" width="42.6874" height="19.1997" class="st11"/>
			<text x="10.93" y="1036.41" class="st6" v:langID="1053"><v:paragraph v:horizAlign="1"/><v:tabList/>Racial Save<v:newlineChar/><tspan
						x="16.05" dy="1.2em" class="st7">Modifiers</tspan></text>		</g>
		<g id="shape69-211" v:mID="69" v:groupContext="shape" v:layerMember="2" transform="translate(170.079,-765.354)">
			<title>Dynamic connector.69</title>
			<desc>Class Save Modifiers</desc>
			<v:textBlock v:margins="rect(4,4,4,4)" v:tabSpace="42.5197"/>
			<v:textRect cx="12.4301" cy="1007.36" width="51.44" height="27.2035"/>
			<path d="M0 841.89 C0 1079.29 43.16 1079.29 86.31 1079.29 C101.6 1079.29 116.89 1079.29 123.78 1086.51 L123.9 1086.85"
					class="st9"/>
			<rect v:rectContext="textBkgnd" x="-8.16875" y="997.758" width="40.461" height="19.1997" class="st11"/>
			<text x="-7.79" y="1004.96" class="st6" v:langID="1053"><v:paragraph v:horizAlign="1"/><v:tabList/>Class Save<v:newlineChar/><tspan
						x="-3.79" dy="1.2em" class="st7">Modifiers</tspan></text>		</g>
		<g id="group70-219" transform="translate(184.252,-340.157)" v:mID="70" v:groupContext="group">
			<v:custProps>
				<v:cp v:nameU="Depth" v:lbl="Depth" v:type="1" v:format=" 10%; 20%; 30%; 40%; 50%; 60%; 70%; 80%; 90%;100%"
						v:langID="1033" v:val="VT4( 10%)"/>
			</v:custProps>
			<v:userDefs>
				<v:ud v:nameU="ShadowColor" v:val="VT5(#999999)"/>
				<v:ud v:nameU="ShadowPercentage" v:val="VT0(0.6):26"/>
				<v:ud v:nameU="HighlightColor" v:val="VT5(#cccccc)"/>
				<v:ud v:nameU="HighlightPercentage" v:val="VT0(0.8):26"/>
				<v:ud v:nameU="visVersion" v:val="VT0(11):26"/>
			</v:userDefs>
			<title>Shallow block.70</title>
			<desc>Skill Actions</desc>
			<g id="shape71-220" v:mID="71" v:groupContext="shape" v:layerMember="1">
				<title>Sheet.71</title>
				<path d="M0 813.54 L56.69 813.54 L62.36 805.04 L11.34 805.04 L0 813.54 Z" class="st8"/>
			</g>
			<g id="shape72-222" v:mID="72" v:groupContext="shape" v:layerMember="1">
				<title>Sheet.72</title>
				<path d="M56.69 813.54 L56.69 841.89 L62.36 830.55 L62.36 805.04 L56.69 813.54 Z" class="st4"/>
			</g>
			<g id="shape73-224" v:mID="73" v:groupContext="shape">
				<title>Sheet.73</title>
				<v:textBlock v:margins="rect(4,4,4,4)" v:tabSpace="42.5197"/>
				<rect x="0" y="813.543" width="56.6929" height="28.3465" class="st5"/>
			</g>
			<g id="shape70-226" v:mID="70" v:groupContext="groupContent">
				<v:textBlock v:margins="rect(4,4,4,4)" v:tabSpace="42.5197"/>
				<v:textRect cx="28.3465" cy="827.717" width="56.7" height="28.3465"/>
				<text x="6.79" y="830.12" class="st6" v:langID="1053"><v:paragraph v:horizAlign="1"/><v:tabList/>Skill Actions</text>			</g>
		</g>
		<g id="group74-228" transform="translate(269.291,-340.157)" v:mID="74" v:groupContext="group">
			<v:custProps>
				<v:cp v:nameU="Depth" v:lbl="Depth" v:type="1" v:format=" 10%; 20%; 30%; 40%; 50%; 60%; 70%; 80%; 90%;100%"
						v:langID="1033" v:val="VT4( 10%)"/>
			</v:custProps>
			<v:userDefs>
				<v:ud v:nameU="ShadowColor" v:val="VT5(#999999)"/>
				<v:ud v:nameU="ShadowPercentage" v:val="VT0(0.6):26"/>
				<v:ud v:nameU="HighlightColor" v:val="VT5(#cccccc)"/>
				<v:ud v:nameU="HighlightPercentage" v:val="VT0(0.8):26"/>
				<v:ud v:nameU="visVersion" v:val="VT0(11):26"/>
			</v:userDefs>
			<title>Shallow block.74</title>
			<desc>Combat Attacks</desc>
			<g id="shape75-229" v:mID="75" v:groupContext="shape" v:layerMember="1">
				<title>Sheet.75</title>
				<path d="M0 813.54 L56.69 813.54 L53.86 805.04 L2.83 805.04 L0 813.54 Z" class="st8"/>
			</g>
			<g id="shape76-231" v:mID="76" v:groupContext="shape" v:layerMember="1">
				<title>Sheet.76</title>
			</g>
			<g id="shape77-233" v:mID="77" v:groupContext="shape">
				<title>Sheet.77</title>
				<v:textBlock v:margins="rect(4,4,4,4)" v:tabSpace="42.5197"/>
				<rect x="0" y="813.543" width="56.6929" height="28.3465" class="st5"/>
			</g>
			<g id="shape74-235" v:mID="74" v:groupContext="groupContent">
				<v:textBlock v:margins="rect(4,4,4,4)" v:tabSpace="42.5197"/>
				<v:textRect cx="28.3465" cy="827.717" width="56.7" height="28.3465"/>
				<text x="14.34" y="825.32" class="st6" v:langID="1053"><v:paragraph v:horizAlign="1"/><v:tabList/>Combat <tspan
							x="15.23" dy="1.2em" class="st7">Attacks</tspan></text>			</g>
		</g>
		<g id="group78-238" transform="translate(354.331,-340.157)" v:mID="78" v:groupContext="group">
			<v:custProps>
				<v:cp v:nameU="Depth" v:lbl="Depth" v:type="1" v:format=" 10%; 20%; 30%; 40%; 50%; 60%; 70%; 80%; 90%;100%"
						v:langID="1033" v:val="VT4( 10%)"/>
			</v:custProps>
			<v:userDefs>
				<v:ud v:nameU="ShadowColor" v:val="VT5(#999999)"/>
				<v:ud v:nameU="ShadowPercentage" v:val="VT0(0.6):26"/>
				<v:ud v:nameU="HighlightColor" v:val="VT5(#cccccc)"/>
				<v:ud v:nameU="HighlightPercentage" v:val="VT0(0.8):26"/>
				<v:ud v:nameU="visVersion" v:val="VT0(11):26"/>
			</v:userDefs>
			<title>Shallow block.78</title>
			<desc>Magical Attacks</desc>
			<g id="shape79-239" v:mID="79" v:groupContext="shape" v:layerMember="1">
				<title>Sheet.79</title>
				<path d="M0 813.54 L0 841.89 L-5.67 830.55 L-5.67 805.04 L0 813.54 Z M0 813.54 L56.69 813.54 L45.35 805.04 L-5.67
							 805.04 L0 813.54 Z" class="st8"/>
			</g>
			<g id="shape80-241" v:mID="80" v:groupContext="shape" v:layerMember="1">
				<title>Sheet.80</title>
			</g>
			<g id="shape81-243" v:mID="81" v:groupContext="shape">
				<title>Sheet.81</title>
				<v:textBlock v:margins="rect(4,4,4,4)" v:tabSpace="42.5197"/>
				<rect x="0" y="813.543" width="56.6929" height="28.3465" class="st5"/>
			</g>
			<g id="shape78-245" v:mID="78" v:groupContext="groupContent">
				<v:textBlock v:margins="rect(4,4,4,4)" v:tabSpace="42.5197"/>
				<v:textRect cx="28.3465" cy="827.717" width="56.7" height="28.3465"/>
				<text x="14.57" y="825.32" class="st6" v:langID="1053"><v:paragraph v:horizAlign="1"/><v:tabList/>Magical <tspan
							x="15.23" dy="1.2em" class="st7">Attacks</tspan></text>			</g>
		</g>
		<g id="shape82-248" v:mID="82" v:groupContext="shape" v:layerMember="2" transform="translate(127.559,-623.622)">
			<title>Dynamic connector.82</title>
			<path d="M0 841.89 C-0 852.52 39.26 852.52 78.52 852.52 C122.58 852.52 166.64 852.52 169.89 944.12 L169.89 944.48"
					class="st12"/>
		</g>
		<g id="shape83-253" v:mID="83" v:groupContext="shape" v:layerMember="2" transform="translate(127.559,-623.622)">
			<title>Dynamic connector.83</title>
			<desc>Skill Level and Synergy</desc>
			<v:textBlock v:margins="rect(4,4,4,4)" v:tabSpace="42.5197"/>
			<v:textRect cx="6.47213" cy="992.263" width="47" height="36.8035"/>
			<path d="M0 841.89 C-0 1086.38 31.94 1086.38 63.89 1086.38 C69.31 1086.38 74.73 1086.38 78.72 1087.81 L78.93 1088.1"
					class="st12"/>
			<rect v:rectContext="textBkgnd" x="-11.9061" y="977.863" width="36.0154" height="28.7996" class="st11"/>
			<text x="-11.53" y="985.06" class="st6" v:langID="1053"><v:paragraph v:horizAlign="1"/><v:tabList/>Skill Level<v:newlineChar/><tspan
						x="-0.2" dy="1.2em" class="st7">and<v:newlineChar/></tspan><tspan x="-8.2" dy="1.2em" class="st7">Synergy</tspan></text>		</g>
		<g id="shape84-262" v:mID="84" v:groupContext="shape" v:layerMember="2" transform="translate(127.559,-623.622)">
			<title>Dynamic connector.84</title>
			<path d="M0 841.89 C0 1086.38 54.09 1086.38 108.18 1086.38 C129.25 1086.38 150.31 1086.38 161.62 1089.73 L161.89 1089.96"
					class="st12"/>
		</g>
		<g id="shape85-267" v:mID="85" v:groupContext="shape" v:layerMember="2" transform="translate(127.559,-623.622)">
			<title>Dynamic connector.85</title>
			<path d="M0 841.89 C-0 1086.38 74.05 1086.38 148.1 1086.38 C188.15 1086.38 228.21 1086.38 245.82 1090.84 L246.12 1091.04"
					class="st12"/>
		</g>
		<g id="shape86-272" v:mID="86" v:groupContext="shape" v:layerMember="2" transform="translate(290.551,-623.622)">
			<title>Dynamic connector.86</title>
			<desc>Ability Modifiers</desc>
			<v:textBlock v:margins="rect(4,4,4,4)" v:tabSpace="42.5197"/>
			<v:textRect cx="7.08661" cy="898.583" width="43.43" height="27.2035"/>
			<path d="M7.09 841.89 C7.09 866.88 7.09 913.91 7.09 944.12" class="st14"/>
			<rect v:rectContext="textBkgnd" x="-9.50414" y="888.983" width="32.4531" height="19.1997" class="st11"/>
			<text x="-3.57" y="896.18" class="st6" v:langID="1053"><v:paragraph v:horizAlign="1"/><v:tabList/>Ability<v:newlineChar/><tspan
						x="-9.13" dy="1.2em" class="st7">Modifiers</tspan></text>		</g>
		<g id="shape87-280" v:mID="87" v:groupContext="shape" v:layerMember="2" transform="translate(297.638,-623.622)">
			<title>Dynamic connector.87</title>
			<desc>Ability Modifiers</desc>
			<v:textBlock v:margins="rect(4,4,4,4)" v:tabSpace="42.5197"/>
			<v:textRect cx="-34.3928" cy="972.259" width="43.43" height="27.2035"/>
			<path d="M0 841.89 C0 895.04 0 928.41 -4.87 940.83 C-7.76 948.19 -12.35 948.19 -16.76 948.19 C-21.9 948.19 -26.77 948.19
						 -29.89 953.26 C-35.43 962.27 -35.43 987.26 -35.43 1011.52 C-35.43 1037.22 -35.43 1062.09 -52.77 1072.26
						 C-61.67 1077.48 -75.15 1078.83 -81.5 1086.43 L-81.61 1086.77" class="st9"/>
			<rect v:rectContext="textBkgnd" x="-50.9835" y="962.659" width="32.4531" height="19.1997" class="st11"/>
			<text x="-45.05" y="969.86" class="st6" v:langID="1053"><v:paragraph v:horizAlign="1"/><v:tabList/>Ability<v:newlineChar/><tspan
						x="-50.61" dy="1.2em" class="st7">Modifiers</tspan></text>		</g>
		<g id="shape88-288" v:mID="88" v:groupContext="shape" v:layerMember="2" transform="translate(290.551,-623.622)">
			<title>Dynamic connector.88</title>
			<desc>Ability Modifiers</desc>
			<v:textBlock v:margins="rect(4,4,4,4)" v:tabSpace="42.5197"/>
			<v:textRect cx="-26.7334" cy="967.43" width="43.43" height="27.2035"/>
			<path d="M7.09 841.89 C7.09 895.04 7.09 928.41 2.22 940.83 C-0.67 948.19 -5.27 948.19 -9.67 948.19 C-14.81 948.19 -19.69
						 948.19 -22.81 953.33 C-28.35 962.45 -28.35 987.76 -28.35 1012.51 C-28.35 1037.92 -28.35 1062.75 -15.59 1072.68
						 C-9.35 1077.53 -0.06 1078.82 4.45 1086.16 L4.53 1086.51" class="st9"/>
			<rect v:rectContext="textBkgnd" x="-43.3241" y="957.83" width="32.4531" height="19.1997" class="st11"/>
			<text x="-37.39" y="965.03" class="st6" v:langID="1053"><v:paragraph v:horizAlign="1"/><v:tabList/>Ability<v:newlineChar/><tspan
						x="-42.95" dy="1.2em" class="st7">Modifiers</tspan></text>		</g>
		<g id="shape89-296" v:mID="89" v:groupContext="shape" v:layerMember="2" transform="translate(297.638,-623.622)">
			<title>Dynamic connector.89</title>
			<desc>Ability Modifiers</desc>
			<v:textBlock v:margins="rect(4,4,4,4)" v:tabSpace="42.5197"/>
			<v:textRect cx="34.3354" cy="973.128" width="43.43" height="27.2035"/>
			<path d="M0 841.89 C0 895.04 0 928.41 4.81 940.83 C7.66 948.19 12.2 948.19 16.51 948.19 C21.75 948.19 26.64 948.19 29.79
						 953.47 C35.43 962.94 35.43 989.4 35.43 1015.31 C35.43 1042.61 35.43 1069.31 53.89 1079.72 C61.12 1083.8
						 71.18 1085.38 77.89 1088.44 L78.12 1088.71" class="st9"/>
			<rect v:rectContext="textBkgnd" x="17.7446" y="963.528" width="32.4531" height="19.1997" class="st11"/>
			<text x="23.68" y="970.73" class="st6" v:langID="1053"><v:paragraph v:horizAlign="1"/><v:tabList/>Ability<v:newlineChar/><tspan
						x="18.12" dy="1.2em" class="st7">Modifiers</tspan></text>		</g>
		<g id="shape90-304" v:mID="90" v:groupContext="shape" v:layerMember="2" transform="translate(219.685,-623.622)">
			<title>Dynamic connector.90</title>
			<path d="M-7.09 841.89 C-7.09 895.04 -7.09 928.41 -11.96 940.83 C-14.84 948.19 -19.44 948.19 -23.85 948.19 C-28.98 948.19
						 -33.86 948.19 -36.98 953.33 C-42.52 962.45 -42.52 987.76 -42.52 1012.51 C-42.52 1037.92 -42.52 1062.75 -29.76
						 1072.68 C-23.52 1077.53 -14.23 1078.82 -9.73 1086.16 L-9.64 1086.51" class="st12"/>
		</g>
		<g id="shape91-309" v:mID="91" v:groupContext="shape" v:layerMember="2" transform="translate(212.598,-623.622)">
			<title>Dynamic connector.91</title>
			<desc>Size DeC Modifier</desc>
			<v:textBlock v:margins="rect(4,4,4,4)" v:tabSpace="42.5197"/>
			<v:textRect cx="24.0393" cy="912.133" width="44.77" height="27.2035"/>
			<path d="M0 841.89 C0 920.38 57.23 934.47 77.79 946.79 L78.03 947.06" class="st9"/>
			<rect v:rectContext="textBkgnd" x="6.76241" y="902.533" width="33.789" height="19.1997" class="st11"/>
			<text x="7.14" y="909.73" class="st6" v:langID="1053"><v:paragraph v:horizAlign="1"/><v:tabList/>Size DeC<v:newlineChar/><tspan
						x="9.81" dy="1.2em" class="st7">Modifier</tspan></text>		</g>
		<g id="group92-317" transform="translate(184.252,-481.89)" v:mID="92" v:groupContext="group">
			<v:custProps>
				<v:cp v:nameU="Depth" v:lbl="Depth" v:type="1" v:format=" 10%; 20%; 30%; 40%; 50%; 60%; 70%; 80%; 90%;100%"
						v:langID="1033" v:val="VT4( 10%)"/>
			</v:custProps>
			<v:userDefs>
				<v:ud v:nameU="ShadowColor" v:val="VT5(#999999)"/>
				<v:ud v:nameU="ShadowPercentage" v:val="VT0(0.6):26"/>
				<v:ud v:nameU="HighlightColor" v:val="VT5(#cccccc)"/>
				<v:ud v:nameU="HighlightPercentage" v:val="VT0(0.8):26"/>
				<v:ud v:nameU="visVersion" v:val="VT0(11):26"/>
			</v:userDefs>
			<title>Shallow block.92</title>
			<desc>Initiative Modifier</desc>
			<g id="shape93-318" v:mID="93" v:groupContext="shape" v:layerMember="1">
				<title>Sheet.93</title>
			</g>
			<g id="shape94-320" v:mID="94" v:groupContext="shape" v:layerMember="1">
				<title>Sheet.94</title>
				<path d="M56.69 813.54 L56.69 841.89 L62.36 844.72 L62.36 819.21 L56.69 813.54 Z M0 841.89 L56.69 841.89 L62.36 844.72
							 L11.34 844.72 L0 841.89 Z" class="st4"/>
			</g>
			<g id="shape95-322" v:mID="95" v:groupContext="shape">
				<title>Sheet.95</title>
				<v:textBlock v:margins="rect(4,4,4,4)" v:tabSpace="42.5197"/>
				<rect x="0" y="813.543" width="56.6929" height="28.3465" class="st5"/>
			</g>
			<g id="shape92-324" v:mID="92" v:groupContext="groupContent">
				<v:textBlock v:margins="rect(4,4,4,4)" v:tabSpace="42.5197"/>
				<v:textRect cx="28.3465" cy="827.717" width="56.7" height="28.3465"/>
				<text x="13.68" y="825.32" class="st6" v:langID="1053"><v:paragraph v:horizAlign="1"/><v:tabList/>Initiative <tspan
							x="14.12" dy="1.2em" class="st7">Modifier</tspan></text>			</g>
		</g>
		<g id="shape96-327" v:mID="96" v:groupContext="shape" v:layerMember="2" transform="translate(127.559,-623.622)">
			<title>Dynamic connector.96</title>
			<path d="M0 841.89 C-0 917.16 61.41 928.47 79.86 945.39 L80.02 945.71" class="st12"/>
		</g>
		<g id="shape97-332" v:mID="97" v:groupContext="shape" v:layerMember="2" transform="translate(297.638,-623.622)">
			<title>Dynamic connector.97</title>
			<desc>Dex Modifier</desc>
			<v:textBlock v:margins="rect(4,4,4,4)" v:tabSpace="42.5197"/>
			<v:textRect cx="-26.8066" cy="910.058" width="55.88" height="17.6036"/>
			<path d="M0 841.89 C0 917.16 -61.41 928.47 -79.86 945.39 L-80.02 945.71" class="st9"/>
			<rect v:rectContext="textBkgnd" x="-49.6217" y="905.258" width="44.9022" height="9.59985" class="st11"/>
			<text x="-49.25" y="912.46" class="st6" v:langID="1053"><v:paragraph v:horizAlign="1"/><v:tabList/>Dex Modifier</text>		</g>
		<g id="group98-339" transform="translate(481.89,-623.622)" v:mID="98" v:groupContext="group">
			<v:custProps>
				<v:cp v:nameU="Depth" v:lbl="Depth" v:type="1" v:format=" 10%; 20%; 30%; 40%; 50%; 60%; 70%; 80%; 90%;100%"
						v:langID="1033" v:val="VT4( 10%)"/>
			</v:custProps>
			<v:userDefs>
				<v:ud v:nameU="ShadowColor" v:val="VT5(#999999)"/>
				<v:ud v:nameU="ShadowPercentage" v:val="VT0(0.6):26"/>
				<v:ud v:nameU="HighlightColor" v:val="VT5(#cccccc)"/>
				<v:ud v:nameU="HighlightPercentage" v:val="VT0(0.8):26"/>
				<v:ud v:nameU="visVersion" v:val="VT0(11):26"/>
			</v:userDefs>
			<title>Shallow block.98</title>
			<desc>Combat Bonus</desc>
			<g id="shape99-340" v:mID="99" v:groupContext="shape" v:layerMember="1">
				<title>Sheet.99</title>
				<path d="M0 813.54 L0 841.89 L-18.43 858.9 L-18.43 833.39 L0 813.54 Z" class="st8"/>
			</g>
			<g id="shape100-342" v:mID="100" v:groupContext="shape" v:layerMember="1">
				<title>Sheet.100</title>
				<path d="M0 841.89 L56.69 841.89 L32.6 858.9 L-18.43 858.9 L0 841.89 Z" class="st4"/>
			</g>
			<g id="shape101-344" v:mID="101" v:groupContext="shape">
				<title>Sheet.101</title>
				<v:textBlock v:margins="rect(4,4,4,4)" v:tabSpace="42.5197"/>
				<rect x="0" y="813.543" width="56.6929" height="28.3465" class="st5"/>
			</g>
			<g id="shape98-346" v:mID="98" v:groupContext="groupContent">
				<v:textBlock v:margins="rect(4,4,4,4)" v:tabSpace="42.5197"/>
				<v:textRect cx="28.3465" cy="827.717" width="56.7" height="28.3465"/>
				<text x="14.34" y="825.32" class="st6" v:langID="1053"><v:paragraph v:horizAlign="1"/><v:tabList/>Combat <tspan
							x="17.01" dy="1.2em" class="st7">Bonus</tspan></text>			</g>
		</g>
		<g id="shape102-349" v:mID="102" v:groupContext="shape" v:layerMember="2" transform="translate(382.677,-623.622)">
			<title>Dynamic connector.102</title>
			<path d="M0 841.89 C-0 852.52 14.13 852.52 23.14 848.61 C38.98 841.74 38.98 822.78 46.26 813.07 C53.9 802.91 69.53 802.91
						 89.39 802.91 C100.2 802.91 112.27 802.91 119.88 805.44 L120.13 805.7" class="st9"/>
		</g>
	</g>
</svg>
